<svg xmlns="http://www.w3.org/2000/svg" viewBox="0 0 1200 675">
  <defs>
    <linearGradient id="bg" x1="0" y1="1" x2="1" y2="0">
      <stop offset="0" stop-color="#0a0d11"/>
      <stop offset="1" stop-color="#1c2028"/>
    </linearGradient>
  </defs>
  <rect width="1200" height="675" fill="url(#bg)"/>
  <g fill="none" stroke-linecap="round">
    <path d="M168 522c120-146 290-224 482-236 132-8 248 16 382 72" stroke="#36d8ff" stroke-width="10"/>
    <path d="M176 556c220-74 400-95 580-64 86 15 171 43 270 86" stroke="#a78bfa" stroke-width="8" opacity="0.75"/>
    <path d="M642 314c68-72 143-104 224-96 80 8 143 52 190 133" stroke="#7ee787" stroke-width="6" opacity="0.8"/>
  </g>
  <g transform="translate(184 296)">
    <path d="M0 206c116-10 205-58 267-144 21 88-8 166-86 234-68 58-135 70-181 36Z" fill="#151b22" stroke="#f2bd5e" stroke-width="10"/>
    <path d="M130 154l132-116" stroke="#f2bd5e" stroke-width="12" stroke-linecap="round"/>
    <circle cx="276" cy="24" r="18" fill="#f2bd5e"/>
  </g>
  <g fill="#36d8ff">
    <circle cx="726" cy="260" r="8"/>
    <circle cx="816" cy="238" r="7"/>
    <circle cx="910" cy="254" r="6"/>
    <circle cx="1012" cy="312" r="8"/>
  </g>
</svg>
