<svg xmlns="http://www.w3.org/2000/svg" viewBox="0 0 1200 675">
  <defs>
    <linearGradient id="bg" x1="0" y1="0" x2="1" y2="1">
      <stop offset="0" stop-color="#0a0b10"/>
      <stop offset="1" stop-color="#1b1d2a"/>
    </linearGradient>
  </defs>
  <rect width="1200" height="675" fill="url(#bg)"/>
  <g fill="#141923" stroke="#2b3540" stroke-width="4">
    <rect x="104" y="92" width="318" height="490" rx="8"/>
    <rect x="456" y="92" width="640" height="228" rx="8"/>
    <rect x="456" y="354" width="286" height="228" rx="8"/>
    <rect x="776" y="354" width="320" height="228" rx="8"/>
  </g>
  <g fill="none" stroke="#36d8ff" stroke-width="10" stroke-linecap="round" stroke-linejoin="round">
    <path d="M204 474v-92l58-44 58 44v92"/>
    <path d="M204 474h116"/>
    <path d="M262 338v-96"/>
    <path d="M224 242h76"/>
  </g>
  <g fill="#a78bfa">
    <rect x="506" y="142" width="134" height="38" rx="8"/>
    <rect x="506" y="204" width="236" height="24" rx="8"/>
    <rect x="506" y="252" width="320" height="24" rx="8"/>
  </g>
  <g fill="#7ee787">
    <rect x="506" y="404" width="78" height="78" rx="8"/>
    <rect x="606" y="404" width="78" height="78" rx="8"/>
    <rect x="506" y="502" width="78" height="32" rx="8"/>
    <rect x="606" y="502" width="78" height="32" rx="8"/>
  </g>
  <g fill="none" stroke="#f2bd5e" stroke-width="8">
    <path d="M842 520c14-80 60-122 137-126 44-2 82 10 114 35"/>
    <circle cx="946" cy="454" r="34"/>
    <path d="M900 520h148"/>
  </g>
</svg>
