<svg xmlns="http://www.w3.org/2000/svg" viewBox="0 0 1200 675">
  <defs>
    <linearGradient id="bg" x1="0" y1="0" x2="1" y2="1">
      <stop offset="0" stop-color="#0b1110"/>
      <stop offset="1" stop-color="#1c2320"/>
    </linearGradient>
  </defs>
  <rect width="1200" height="675" fill="url(#bg)"/>
  <g opacity="0.3" stroke="#7ee787" stroke-width="5" fill="none">
    <path d="M146 545c94-190 234-284 420-282 171 1 334 91 490 270"/>
    <path d="M234 543c56-116 143-181 262-196 102-13 196 23 281 107"/>
    <path d="M400 548c30-66 76-104 138-114 74-12 141 14 202 80"/>
  </g>
  <g fill="#d94b4b">
    <circle cx="358" cy="360" r="64"/>
    <circle cx="620" cy="296" r="82"/>
    <circle cx="820" cy="412" r="58"/>
  </g>
  <g fill="#7ee787">
    <path d="M337 302l25-45 17 46Z"/>
    <path d="M595 220l29-55 22 58Z"/>
    <path d="M798 360l22-42 17 43Z"/>
  </g>
  <g fill="none" stroke="#36d8ff" stroke-width="10">
    <rect x="278" y="282" width="162" height="166" rx="6"/>
    <rect x="516" y="196" width="214" height="208" rx="6"/>
    <rect x="754" y="352" width="138" height="132" rx="6"/>
  </g>
  <g stroke="#f2bd5e" stroke-width="7" stroke-linecap="round">
    <path d="M278 470h162"/>
    <path d="M516 426h214"/>
    <path d="M754 506h138"/>
  </g>
</svg>
